HIERARCHY
ROOT hip
{
  OFFSET 0 0 0
  CHANNELS 6 Xposition Yposition Zposition Zrotation Yrotation Xrotation
  JOINT abdomen
  {
    OFFSET 0 20.6881 -0.73152
    CHANNELS 3 Zrotation Xrotation Yrotation
    JOINT chest
    {
      OFFSET 0 11.7043 -0.48768
      CHANNELS 3 Zrotation Xrotation Yrotation
      JOINT neck
      {
        OFFSET 0 22.1894 -2.19456
        CHANNELS 3 Zrotation Xrotation Yrotation
        JOINT head
        {
          OFFSET -0.24384 7.07133 1.2192
          CHANNELS 3 Zrotation Xrotation Yrotation
          JOINT leftEye
          {
            OFFSET 4.14528 8.04674 8.04672
            CHANNELS 3 Zrotation Xrotation Yrotation
            End Site
            {
              OFFSET 1 0 0
            }
          }
          JOINT rightEye
          {
            OFFSET -3.6576 8.04674 8.04672
            CHANNELS 3 Zrotation Xrotation Yrotation
            End Site
            {
              OFFSET 1 0 0
            }
          }
        }
      }
      JOINT rCollar
      {
        OFFSET -2.68224 19.2634 -4.8768
        CHANNELS 3 Zrotation Xrotation Yrotation
        JOINT rShldr
        {
          OFFSET -8.77824 -1.95073 1.46304
          CHANNELS 3 Zrotation Xrotation Yrotation
          JOINT rForeArm
          {
            OFFSET -28.1742 -1.7115 0.48768
            CHANNELS 3 Zrotation Xrotation Yrotation
            JOINT rHand
            {
              OFFSET -22.5879 0.773209 7.07136
              CHANNELS 3 Zrotation Xrotation Yrotation
              JOINT rThumb1
              {
                OFFSET -1.2192 -0.487915 3.41376
                CHANNELS 3 Zrotation Xrotation Yrotation
                JOINT rThumb2
                {
                  OFFSET -3.37035 -0.52449 3.41376
                  CHANNELS 3 Zrotation Xrotation Yrotation
                  End Site
                  {
                    OFFSET -1.78271 -1.18214 1.43049
                  }
                }
              }
              JOINT rIndex1
              {
                OFFSET -7.75947 0.938293 5.60832
                CHANNELS 3 Zrotation Xrotation Yrotation
                JOINT rIndex2
                {
                  OFFSET -2.54057 -0.884171 1.56538
                  CHANNELS 3 Zrotation Xrotation Yrotation
                  End Site
                  {
                    OFFSET -1.62519 -0.234802 1.16502
                  }
                }
              }
              JOINT rMid1
              {
                OFFSET -8.24714 1.18213 3.41376
                CHANNELS 3 Zrotation Xrotation Yrotation
                JOINT rMid2
                {
                  OFFSET -3.10165 -0.590103 1.0647
                  CHANNELS 3 Zrotation Xrotation Yrotation
                  End Site
                  {
                    OFFSET -2.48547 -0.328903 0.83742
                  }
                }
              }
              JOINT rRing1
              {
                OFFSET -8.82822 0.546677 1.51678
                CHANNELS 3 Zrotation Xrotation Yrotation
                JOINT rRing2
                {
                  OFFSET -2.60934 -0.819778 -0.0198488
                  CHANNELS 3 Zrotation Xrotation Yrotation
                  End Site
                  {
                    OFFSET -2.33842 -0.294052 0.168128
                  }
                }
              }
              JOINT rPinky1
              {
                OFFSET -8.27202 -0.0477905 -0.4584
                CHANNELS 3 Zrotation Xrotation Yrotation
                JOINT rPinky2
                {
                  OFFSET -1.82734 -0.647385 -0.700984
                  CHANNELS 3 Zrotation Xrotation Yrotation
                  End Site
                  {
                    OFFSET -1.69225 -0.51767 -0.607171
                  }
                }
              }
            }
          }
        }
      }
      JOINT lCollar
      {
        OFFSET 2.68224 19.2634 -4.8768
        CHANNELS 3 Zrotation Xrotation Yrotation
        JOINT lShldr
        {
          OFFSET 8.77824 -1.95073 1.46304
          CHANNELS 3 Zrotation Xrotation Yrotation
          JOINT lForeArm
          {
            OFFSET 28.1742 -1.7115 0.48768
            CHANNELS 3 Zrotation Xrotation Yrotation
            JOINT lHand
            {
              OFFSET 22.5879 0.773209 7.07136
              CHANNELS 3 Zrotation Xrotation Yrotation
              JOINT lThumb1
              {
                OFFSET 1.2192 -0.487915 3.41376
                CHANNELS 3 Zrotation Xrotation Yrotation
                JOINT lThumb2
                {
                  OFFSET 3.37035 -0.52449 3.41376
                  CHANNELS 3 Zrotation Xrotation Yrotation
                  End Site
                  {
                    OFFSET 1.78271 -1.18214 1.43049
                  }
                }
              }
              JOINT lIndex1
              {
                OFFSET 7.75947 0.938293 5.60832
                CHANNELS 3 Zrotation Xrotation Yrotation
                JOINT lIndex2
                {
                  OFFSET 2.54057 -0.884171 1.56538
                  CHANNELS 3 Zrotation Xrotation Yrotation
                  End Site
                  {
                    OFFSET 1.62519 -0.234802 1.16502
                  }
                }
              }
              JOINT lMid1
              {
                OFFSET 8.24714 1.18213 3.41376
                CHANNELS 3 Zrotation Xrotation Yrotation
                JOINT lMid2
                {
                  OFFSET 3.10165 -0.590103 1.0647
                  CHANNELS 3 Zrotation Xrotation Yrotation
                  End Site
                  {
                    OFFSET 2.48547 -0.328903 0.83742
                  }
                }
              }
              JOINT lRing1
              {
                OFFSET 8.82822 0.546677 1.51678
                CHANNELS 3 Zrotation Xrotation Yrotation
                JOINT lRing2
                {
                  OFFSET 2.60934 -0.819778 -0.0198488
                  CHANNELS 3 Zrotation Xrotation Yrotation
                  End Site
                  {
                    OFFSET 2.33842 -0.294052 0.168128
                  }
                }
              }
              JOINT lPinky1
              {
                OFFSET 8.27202 -0.0477905 -0.4584
                CHANNELS 3 Zrotation Xrotation Yrotation
                JOINT lPinky2
                {
                  OFFSET 1.82734 -0.647385 -0.700984
                  CHANNELS 3 Zrotation Xrotation Yrotation
                  End Site
                  {
                    OFFSET 1.69225 -0.51767 -0.607171
                  }
                }
              }
            }
          }
        }
      }
    }
  }
  JOINT rButtock
  {
    OFFSET -8.77824 4.35084 1.2192
    CHANNELS 3 Zrotation Xrotation Yrotation
    JOINT rThigh
    {
      OFFSET 0 -1.70687 -2.19456
      CHANNELS 3 Zrotation Xrotation Yrotation
      JOINT rShin
      {
        OFFSET 0 -36.8199 0.73152
        CHANNELS 3 Zrotation Xrotation Yrotation
        JOINT rFoot
        {
          OFFSET 0.73152 -45.1104 -5.12064
          CHANNELS 3 Zrotation Xrotation Yrotation
          End Site
          {
            OFFSET -1.1221 -3.69964 12.103
          }
        }
      }
    }
  }
  JOINT lButtock
  {
    OFFSET 8.77824 4.35084 1.2192
    CHANNELS 3 Zrotation Xrotation Yrotation
    JOINT lThigh
    {
      OFFSET 0 -1.70687 -2.19456
      CHANNELS 3 Zrotation Xrotation Yrotation
      JOINT lShin
      {
        OFFSET 0 -36.8199 0.73152
        CHANNELS 3 Zrotation Xrotation Yrotation
        JOINT lFoot
        {
          OFFSET -0.73152 -45.1104 -5.12064
          CHANNELS 3 Zrotation Xrotation Yrotation
          End Site
          {
            OFFSET 1.1221 -3.69964 12.103
          }
        }
      }
    }
  }
}
MOTION
Frames:	5
Frame Time:	0.00833333
-32.8503 85.1932 210.291 0.0 0.0 0.0 0.57286 -0.00324248 0.0163891 0.158163 -0.00505494 0.0274048 -1.41088e-14 -7.95139e-16 -5.59082e-17 -4.24405e-14 3.18055e-15 -1.89467e-16 -0.0 0.0 0.0 -0.0 0.0 0.0 -6.90926e-15 1.04828e-17 1.49089e-16 -1.46388e-13 5.71506e-16 -5.96354e-16 -2.55756e-12 7.7526e-13 9.54166e-15 -2.9278e-11 -7.18184e-13 -1.78111e-13 -6.90659e-11 1.1932e-13 -3.33958e-13 -1.19275e-10 2.09917e-13 -5.77271e-13 -6.90622e-11 1.20464e-13 -3.435e-13 7.73091 5.47488 0.417314 -6.90668e-11 1.19668e-13 -3.37139e-13 2.90554 0.965183 0.102902 -6.90637e-11 1.19569e-13 -3.35549e-13 10.2786 0.731801 0.0259123 -6.90691e-11 1.21259e-13 -3.27597e-13 2.22167 -0.733487 -0.20892 -7.00613e-15 1.14534e-17 -2.48481e-16 -1.49889e-13 6.39838e-16 -2.18663e-15 -2.55612e-12 -7.58562e-13 1.59028e-14 -2.928e-11 8.04606e-13 -1.62208e-13 -6.90603e-11 9.26787e-14 -3.33958e-13 -1.19275e-10 1.62208e-13 -5.66139e-13 -6.90665e-11 9.34288e-14 -3.18055e-13 -7.73091 5.47488 -0.417314 -6.90592e-11 9.22361e-14 -3.33958e-13 -2.90554 0.965183 -0.102902 -6.90671e-11 9.323e-14 -3.31573e-13 -10.2786 0.731801 -0.0259123 -6.90518e-11 9.54166e-14 -3.435e-13 -2.22167 -0.733487 0.20892 -2.03217e-16 0.0 -3.88251e-19 0.920465 -4.54482 -0.0776213 -0.0018952 2.68069 -0.00763516 -0.489912 1.86451 0.0936555 2.03217e-16 0.0 3.88251e-19 -0.0477013 -2.33549 0.0218148 0.00803134 -1.3211 0.0687458 0.481255 3.65688 -0.128855
-37.7486 83.434 201.595 -156.01 -81.6835 168.804 1.47987 -5.61355 1.72892 -0.338771 0.868977 0.433502 -8.38412 8.62976 -2.07148 16.9948 -8.85166 -2.50423 -0.0 0.0 0.0 -0.0 0.0 0.0 -1.39275e-13 2.29323e-12 -2.62586e-14 22.63 12.3456 0.351186 -3.69526 -1.58663 5.86785 0.0709802 5.91562 0.815466 1.33104e-09 3.41093e-10 8.69482e-11 2.3005e-09 5.87428e-10 1.24947e-10 1.33105e-09 3.41093e-10 8.69404e-11 7.73091 5.47488 0.417314 1.33104e-09 3.41093e-10 8.69467e-11 2.90554 0.965183 0.102902 1.33105e-09 3.41094e-10 8.69461e-11 10.2786 0.731801 0.0259123 1.33104e-09 3.41095e-10 8.69516e-11 2.22167 -0.733487 -0.20892 -1.39403e-13 2.29323e-12 -2.65859e-14 -21.621 9.63069 1.11105 4.51633 -2.11471 -6.98489 -0.304086 -12.2864 1.58685 7.87207e-10 2.26929e-10 8.07591e-10 1.33162e-09 4.12923e-10 1.42072e-09 7.87199e-10 2.26931e-10 8.07604e-10 -7.73091 5.47488 -0.417314 7.87207e-10 2.2693e-10 8.07591e-10 -2.90554 0.965183 -0.102902 7.87199e-10 2.26931e-10 8.07591e-10 -10.2786 0.731801 -0.0259123 7.87215e-10 2.26933e-10 8.07581e-10 -2.22167 -0.733487 0.20892 -2.03217e-16 0.0 -3.88251e-19 1.14098 -6.96529 -2.11623 -0.00132228 4.16889 0.022869 -0.281398 -1.48996 3.79064 2.03217e-16 0.0 3.88251e-19 1.62657 -6.22627 1.26808 0.00781362 2.01661 0.00997835 0.326712 0.147201 -2.3103
-37.7511 83.4358 201.58 -155.776 -81.6356 168.553 2.81184 -11.5274 3.59429 -0.877171 1.79289 0.86288 -16.5383 17.7133 -4.42315 34.0791 -18.1518 -5.35703 -0.0 0.0 0.0 -0.0 0.0 0.0 -2.8549e-13 4.79199e-12 -5.58678e-14 46.3719 25.3956 0.781823 -7.25044 -3.20846 12.0855 -0.0408915 12.1658 1.70701 2.93983e-09 7.32565e-10 1.82114e-10 5.08089e-09 1.26162e-09 2.60316e-10 2.93984e-09 7.32566e-10 1.82108e-10 7.73091 5.47488 0.417314 2.93983e-09 7.32567e-10 1.82115e-10 2.90554 0.965183 0.102902 2.93984e-09 7.32568e-10 1.82112e-10 10.2786 0.731801 0.0259123 2.93983e-09 7.32569e-10 1.82114e-10 2.22167 -0.733487 -0.20892 -2.85649e-13 4.79199e-12 -5.61194e-14 -44.9066 19.7921 2.39519 8.73603 -4.2466 -14.4015 0.185365 -25.2553 3.52854 1.7588e-09 4.87289e-10 1.73575e-09 2.97763e-09 8.86616e-10 3.05318e-09 1.7588e-09 4.87291e-10 1.73576e-09 -7.73091 5.47488 -0.417314 1.7588e-09 4.8729e-10 1.73575e-09 -2.90554 0.965183 -0.102902 1.7588e-09 4.87291e-10 1.73575e-09 -10.2786 0.731801 -0.0259123 1.75881e-09 4.87293e-10 1.73574e-09 -2.22167 -0.733487 0.20892 -2.03217e-16 0.0 -3.88251e-19 1.1868 -9.50527 -4.29824 -0.00243589 5.73836 0.0552285 0.409347 -4.99599 7.72614 2.03217e-16 0.0 3.88251e-19 3.58543 -10.3329 2.61333 0.0150519 5.5467 -0.0524204 -0.127481 -3.55216 -4.62567
-37.7519 83.435 201.589 -156.044 -81.6468 168.819 4.33656 -16.7723 5.35764 -1.36984 2.6165 1.24685 -23.1094 25.7462 -6.82428 48.4428 -26.3399 -8.28887 -0.0 0.0 0.0 -0.0 0.0 0.0 -4.04008e-13 6.87968e-12 -7.9074e-14 67.3388 37.0305 1.28925 -10.1253 -4.56056 17.6545 -0.31349 17.7321 2.55482 4.13126e-09 1.02304e-09 2.61512e-10 7.14004e-09 1.76186e-09 3.75995e-10 4.13126e-09 1.02304e-09 2.61508e-10 7.73091 5.47488 0.417314 4.13126e-09 1.02304e-09 2.61514e-10 2.90554 0.965183 0.102902 4.13127e-09 1.02304e-09 2.61509e-10 10.2786 0.731801 0.0259123 4.13126e-09 1.02304e-09 2.6151e-10 2.22167 -0.733487 -0.20892 -4.04198e-13 6.87968e-12 -7.92607e-14 -66.1174 28.8454 3.75227 12.0335 -5.9678 -21.0599 1.55532 -36.7314 5.80742 2.49974e-09 6.80603e-10 2.42344e-09 4.2334e-09 1.23844e-09 4.2633e-09 2.49973e-09 6.80606e-10 2.42345e-09 -7.73091 5.47488 -0.417314 2.49974e-09 6.80605e-10 2.42344e-09 -2.90554 0.965183 -0.102902 2.49973e-09 6.80606e-10 2.42344e-09 -10.2786 0.731801 -0.0259123 2.49975e-09 6.80607e-10 2.42343e-09 -2.22167 -0.733487 0.20892 -2.03217e-16 0.0 -3.88251e-19 1.05617 -11.7514 -6.27919 -0.0049647 7.14527 0.084334 1.4357 -8.05186 11.2936 2.03217e-16 0.0 3.88251e-19 5.49639 -13.9819 3.8525 0.0280419 8.69202 -0.108788 -0.786158 -6.82503 -6.72155
-37.7536 83.4349 201.594 -156.121 -81.6615 168.89 5.59497 -20.4036 6.67268 -1.72194 3.18985 1.5162 -27.2193 31.2878 -8.77384 57.8699 -31.9508 -10.6857 -0.0 0.0 0.0 -0.0 0.0 0.0 -4.53282e-13 7.93971e-12 -8.62725e-14 81.7805 45.133 1.77404 -11.9708 -5.42817 21.5534 -0.608825 21.6031 3.19031 4.27929e-09 1.06102e-09 3.01491e-10 7.39612e-09 1.82724e-09 4.42449e-10 4.27929e-09 1.06102e-09 3.01488e-10 7.73091 5.47488 0.417314 4.27929e-09 1.06102e-09 3.01494e-10 2.90554 0.965183 0.102902 4.2793e-09 1.06102e-09 3.01488e-10 10.2786 0.731801 0.0259123 4.27929e-09 1.06102e-09 3.01488e-10 2.22167 -0.733487 -0.20892 -4.53504e-13 7.93971e-12 -8.64216e-14 -81.2176 35.1723 4.90084 14.0832 -7.02183 -25.7218 3.27032 -44.5933 7.9645 2.66402e-09 7.06304e-10 2.50997e-09 4.51359e-09 1.28561e-09 4.4176e-09 2.66402e-09 7.06309e-10 2.50998e-09 -7.73091 5.47488 -0.417314 2.66402e-09 7.06308e-10 2.50997e-09 -2.90554 0.965183 -0.102902 2.66402e-09 7.06308e-10 2.50997e-09 -10.2786 0.731801 -0.0259123 2.66403e-09 7.06309e-10 2.50996e-09 -2.22167 -0.733487 0.20892 -2.03217e-16 0.0 -3.88251e-19 0.856981 -13.3107 -7.6863 -0.00767014 8.14582 0.104925 2.38365 -10.1274 13.8273 2.03217e-16 0.0 3.88251e-19 6.91448 -16.5108 4.74385 0.0407475 10.8754 -0.148612 -1.38778 -9.07999 -8.21042
